<?xml version="1.0" encoding="UTF-8"?>
<svg xmlns="http://www.w3.org/2000/svg" xmlns:xlink="http://www.w3.org/1999/xlink" width="159.72pt" height="118.41pt" viewBox="0 0 159.72 118.41" version="1.1">
<defs>
<clipPath id="clip1">
  <path d="M 0 83 L 27 83 L 27 118.410156 L 0 118.410156 Z M 0 83 "/>
</clipPath>
<clipPath id="clip2">
  <path d="M 30 93 L 53 93 L 53 118.410156 L 30 118.410156 Z M 30 93 "/>
</clipPath>
<clipPath id="clip3">
  <path d="M 57 92 L 77 92 L 77 118.410156 L 57 118.410156 Z M 57 92 "/>
</clipPath>
<clipPath id="clip4">
  <path d="M 82 93 L 84 93 L 84 118.410156 L 82 118.410156 Z M 82 93 "/>
</clipPath>
<clipPath id="clip5">
  <path d="M 158 93 L 159.71875 93 L 159.71875 118.410156 L 158 118.410156 Z M 158 93 "/>
</clipPath>
<clipPath id="clip6">
  <path d="M 158 83 L 159.71875 83 L 159.71875 89 L 158 89 Z M 158 83 "/>
</clipPath>
<clipPath id="clip7">
  <path d="M 88 93 L 111 93 L 111 118.410156 L 88 118.410156 Z M 88 93 "/>
</clipPath>
<clipPath id="clip8">
  <path d="M 128 83 L 154 83 L 154 118.410156 L 128 118.410156 Z M 128 83 "/>
</clipPath>
</defs>
<g id="surface1">
<g clip-path="url(#clip1)" clip-rule="nonzero">
<path style=" stroke:none;fill-rule:nonzero;fill:rgb(0.799561%,0.799561%,0.799561%);fill-opacity:1;" d="M 0 106.527344 L 1.824219 106.527344 C 1.824219 111.90625 6.472656 116.609375 13.464844 116.609375 C 19.839844 116.609375 24.3125 113.367188 24.3125 108.585938 C 24.3125 103.171875 18.921875 102.136719 13.175781 101 C 7.210938 99.84375 0.835938 98.574219 0.835938 92.246094 C 0.835938 86.769531 5.703125 83.234375 13.175781 83.234375 C 20.417969 83.234375 25.132813 87 25.132813 92.734375 L 23.351563 92.734375 C 23.351563 87.902344 19.25 84.78125 13.148438 84.78125 C 6.816406 84.78125 2.632813 87.695313 2.632813 92.195313 C 2.632813 97.367188 8.0625 98.402344 13.710938 99.5 C 19.785156 100.707031 26.148438 101.988281 26.148438 108.574219 C 26.148438 114.378906 20.867188 118.183594 13.476563 118.183594 C 5.386719 118.183594 0 112.832031 0 106.527344 "/>
</g>
<g clip-path="url(#clip2)" clip-rule="nonzero">
<path style=" stroke:none;fill-rule:nonzero;fill:rgb(0.799561%,0.799561%,0.799561%);fill-opacity:1;" d="M 51.28125 105.675781 C 51.28125 99.308594 47.035156 94.558594 41.300781 94.558594 C 35.570313 94.558594 31.324219 99.273438 31.324219 105.675781 C 31.324219 112.039063 35.601563 116.789063 41.300781 116.789063 C 47.035156 116.789063 51.28125 112.039063 51.28125 105.675781 Z M 30.019531 105.675781 C 30.019531 98.472656 34.867188 93.164063 41.300781 93.164063 C 47.769531 93.164063 52.585938 98.515625 52.585938 105.675781 C 52.585938 112.832031 47.769531 118.183594 41.300781 118.183594 C 34.867188 118.183594 30.019531 112.832031 30.019531 105.675781 "/>
</g>
<g clip-path="url(#clip3)" clip-rule="nonzero">
<path style=" stroke:none;fill-rule:nonzero;fill:rgb(0.799561%,0.799561%,0.799561%);fill-opacity:1;" d="M 76.566406 103.460938 L 76.566406 118.410156 L 75.1875 118.410156 L 75.1875 103.71875 C 75.1875 97.691406 72.175781 94.054688 67.191406 94.054688 C 62.449219 94.054688 58.390625 98.488281 58.390625 103.695313 L 58.390625 118.410156 L 57.015625 118.410156 L 57.015625 93.144531 L 58.367188 93.144531 L 58.34375 98.96875 C 59.929688 95.242188 63.453125 92.652344 67.453125 92.652344 C 73.058594 92.652344 76.566406 96.945313 76.566406 103.460938 "/>
</g>
<g clip-path="url(#clip4)" clip-rule="nonzero">
<path style=" stroke:none;fill-rule:nonzero;fill:rgb(0.799561%,0.799561%,0.799561%);fill-opacity:1;" d="M 82.394531 93.164063 L 83.867188 93.164063 L 83.867188 118.410156 L 82.394531 118.410156 L 82.394531 93.164063 "/>
</g>
<path style=" stroke:none;fill-rule:nonzero;fill:rgb(0.799561%,0.799561%,0.799561%);fill-opacity:1;" d="M 82.394531 83.636719 L 83.867188 83.636719 L 83.867188 88.839844 L 82.394531 88.839844 L 82.394531 83.636719 "/>
<g clip-path="url(#clip5)" clip-rule="nonzero">
<path style=" stroke:none;fill-rule:nonzero;fill:rgb(0.799561%,0.799561%,0.799561%);fill-opacity:1;" d="M 158.246094 93.164063 L 159.71875 93.164063 L 159.71875 118.410156 L 158.246094 118.410156 L 158.246094 93.164063 "/>
</g>
<g clip-path="url(#clip6)" clip-rule="nonzero">
<path style=" stroke:none;fill-rule:nonzero;fill:rgb(0.799561%,0.799561%,0.799561%);fill-opacity:1;" d="M 158.246094 83.636719 L 159.71875 83.636719 L 159.71875 88.839844 L 158.246094 88.839844 L 158.246094 83.636719 "/>
</g>
<g clip-path="url(#clip7)" clip-rule="nonzero">
<path style=" stroke:none;fill-rule:nonzero;fill:rgb(0.799561%,0.799561%,0.799561%);fill-opacity:1;" d="M 88.933594 105.785156 C 88.933594 98.542969 93.859375 93.164063 100.363281 93.164063 C 105.292969 93.164063 108.855469 96.414063 110.421875 101.027344 L 109.085938 101.027344 C 107.527344 97.136719 104.4375 94.570313 100.363281 94.570313 C 94.589844 94.570313 90.273438 99.398438 90.273438 105.785156 C 90.273438 112.144531 94.632813 117.003906 100.363281 117.003906 C 104.40625 117.003906 107.777344 113.894531 109.433594 109.902344 L 110.796875 109.902344 C 109.136719 114.636719 105.1875 118.410156 100.363281 118.410156 C 93.890625 118.410156 88.933594 112.964844 88.933594 105.785156 "/>
</g>
<g clip-path="url(#clip8)" clip-rule="nonzero">
<path style=" stroke:none;fill-rule:nonzero;fill:rgb(0.799561%,0.799561%,0.799561%);fill-opacity:1;" d="M 151.894531 93.164063 C 151.894531 88.109375 147.507813 85.234375 141.597656 85.234375 L 130.53125 85.234375 L 130.53125 101.027344 L 141.597656 101.027344 C 147.507813 101.027344 151.894531 98.253906 151.894531 93.164063 Z M 153.71875 93.164063 C 153.71875 99.160156 148.5625 102.617188 141.664063 102.617188 L 130.53125 102.617188 L 130.53125 118.410156 L 128.734375 118.410156 L 128.734375 83.648438 L 141.664063 83.648438 C 148.507813 83.648438 153.71875 87.191406 153.71875 93.164063 "/>
</g>
<path style=" stroke:none;fill-rule:nonzero;fill:rgb(29.798889%,30.198669%,30.198669%);fill-opacity:1;" d="M 71.707031 14.886719 L 72.4375 14.15625 C 72.4375 14.15625 89.085938 26.585938 88.785156 39.355469 C 88.460938 53.214844 80.253906 61.332031 72.4375 66.9375 L 72.003906 66.367188 C 72.003906 66.367188 84.726563 55.59375 83.441406 38.433594 C 83.441406 38.433594 83.535156 25.605469 71.707031 14.886719 "/>
<path style=" stroke:none;fill-rule:nonzero;fill:rgb(29.798889%,30.198669%,30.198669%);fill-opacity:1;" d="M 89.679688 7.96875 L 90.515625 7.09375 C 90.515625 7.09375 109.585938 21.992188 109.246094 37.304688 C 108.871094 53.921875 99.46875 63.65625 90.515625 70.375 L 90.019531 69.691406 C 90.019531 69.691406 104.59375 56.777344 103.121094 36.203125 C 103.121094 36.203125 103.230469 20.820313 89.679688 7.96875 "/>
<path style=" stroke:none;fill-rule:nonzero;fill:rgb(29.798889%,30.198669%,30.198669%);fill-opacity:1;" d="M 109.25 1.015625 L 110.269531 0 C 110.269531 0 133.480469 17.234375 133.0625 34.945313 C 132.609375 54.160156 121.164063 65.417969 110.269531 73.1875 L 109.664063 72.398438 C 109.664063 72.398438 127.402344 57.460938 125.609375 33.667969 C 125.609375 33.667969 125.742188 15.878906 109.25 1.015625 "/>
<path style=" stroke:none;fill-rule:nonzero;fill:rgb(92.89856%,10.198975%,49.798584%);fill-opacity:1;" d="M 43.53125 29.015625 L 44.75 26.378906 L 71.707031 26.378906 L 73.699219 25.808594 L 71.953125 28.773438 L 66.59375 29.015625 L 62.980469 48.992188 C 62.980469 48.992188 62.65625 51.101563 63.386719 51.550781 C 64.117188 51.996094 66.347656 50.980469 68.257813 48.464844 L 69.148438 49.882813 C 69.148438 49.882813 67.121094 52.644531 65.007813 54.269531 C 62.898438 55.894531 60.625 56.949219 58.613281 56.378906 C 56.605469 55.8125 57.621094 51.875 57.621094 51.875 L 61.597656 29.097656 L 52.667969 29.097656 L 47.957031 55.894531 L 43.042969 55.894531 L 47.753906 29.097656 L 43.53125 29.015625 "/>
</g>
</svg>
